<?xml version="1.0" standalone="no"?>
<!DOCTYPE svg PUBLIC "-//W3C//DTD SVG 20010904//EN"
 "http://www.w3.org/TR/2001/REC-SVG-20010904/DTD/svg10.dtd">
<svg version="1.0" xmlns="http://www.w3.org/2000/svg"
 width="512.000000pt" height="512.000000pt" viewBox="0 0 512.000000 512.000000"
 preserveAspectRatio="xMidYMid meet">
<metadata>
Created by potrace 1.14, written by Peter Selinger 2001-2017
</metadata>
<g transform="translate(0.000000,512.000000) scale(0.100000,-0.100000)"
fill="#000000" stroke="none">
<path d="M0 2560 l0 -2560 2560 0 2560 0 0 2560 0 2560 -2560 0 -2560 0 0
-2560z m4025 1225 c177 -36 344 -103 466 -186 68 -46 231 -197 227 -210 -4
-10 -338 -319 -345 -319 -3 0 -36 28 -73 63 -151 139 -323 206 -528 207 -358
0 -640 -204 -732 -530 -30 -105 -36 -261 -16 -376 62 -358 327 -590 696 -611
234 -13 417 54 590 214 l65 60 172 -160 c95 -88 173 -163 173 -167 0 -18 -165
-163 -242 -214 -200 -130 -408 -192 -683 -203 -395 -15 -738 110 -991 362
l-91 90 -85 -80 c-166 -156 -388 -261 -663 -313 -65 -12 -205 -16 -727 -19
l-648 -4 0 225 0 225 603 3 602 4 96 26 c273 74 441 237 511 496 26 99 28 291
4 402 -19 88 -80 218 -136 288 -82 104 -218 187 -379 230 -92 24 -111 26 -423
30 l-328 4 0 -391 0 -391 -275 0 -275 0 0 616 0 615 648 -4 c524 -3 662 -7
728 -20 274 -51 493 -155 661 -312 l85 -80 82 81 c199 196 460 323 752 363
100 14 383 6 479 -14z"/>
</g>
</svg>
